# xmcd CD database file
#
# Track frame offsets:
#	150
#	23140
#	38623
#	50019
#	67877
#	77364
#
# Disc length: 1346 seconds
#
# Revision: 0
# Processed by: cddbd v1.5.1PL0 Copyright (c) Steve Scherf et al.
# Submitted via: CDex 1.50
#
DISCID=3c054006
DTITLE=Mistbell - snow in my heart
DYEAR=1900
DGENRE=Game
TTITLE0=朝影 -wind of theearth-
TTITLE1=緑と月日
TTITLE2=ふたり -gently orgel-
TTITLE3=No Style
TTITLE4=生まれたての風 -white breeze-
TTITLE5=Sounded of the Bell
EXTD=
EXTT0=
EXTT1=
EXTT2=
EXTT3=
EXTT4=
EXTT5=
PLAYORDER=
